PathFileType	4	(X/Y/Z)	\\Move.snu.ac.kr\motion\Animal\091204_091205_Bird\091205_bird\Project 2\Capture day 2\Session 1\pigeon_027.trc
DataRate	CameraRate	NumFrames	NumMarkers	Units	OrigDataRate	OrigDataStartFrame	OrigNumFrames
240.0	240.0	18	14	mm	240.0	238	2723
Frame#	Time	14MarkersBird:Head			14MarkersBird:C_back			14MarkersBird:Spine			14MarkersBird:L-shoulder			14MarkersBird:L-elbow			14MarkersBird:L-wrist			14MarkersBird:L-hand			14MarkersBird:R-shoulder			14MarkersBird:R-elbow			14MarkersBird:R-Wrist			14MarkersBird:R-hand			14MarkersBird:C_Tail			14MarkersBird:L-Tale			14MarkersBird:R-Tale			
		X1	Y1	Z1	X2	Y2	Z2	X3	Y3	Z3	X4	Y4	Z4	X5	Y5	Z5	X6	Y6	Z6	X7	Y7	Z7	X8	Y8	Z8	X9	Y9	Z9	X10	Y10	Z10	X11	Y11	Z11	X12	Y12	Z12	X13	Y13	Z13	X14	Y14	Z14	

1651	6.875	-1283.22290	1016.08234	1737.11060	-1251.62500	995.35345	1679.14539	-1230.18555	967.61353	1636.85486	-1246.09570	1004.66443	1711.22473	-1219.08301	1009.25781	1698.39624	-1191.30493	1020.08197	1729.64526	-1169.14697	1037.59045	1733.21436	-1287.15918	997.71429	1693.88611	-1292.99048	1002.97467	1665.54980	-1335.51099	1006.48352	1664.00610	-1366.04578	1012.98779	1643.07581	-1178.09363	884.73169	1564.88196	-1133.74963	952.22687	1656.05371	-1309.13513	928.45081	1569.59839	
1652	6.879	-1288.45679	1012.84656	1747.80383	-1256.70911	992.14081	1690.19336	-1235.58557	965.49860	1647.54236	-1251.43384	1000.99884	1722.34680	-1222.09644	1001.93719	1714.90588	-1199.66211	1005.94293	1750.95496	-1177.11377	1018.76245	1761.31299	-1292.90454	994.19116	1705.15015	-1303.39661	994.91852	1679.39172	-1344.96655	992.69891	1684.61157	-1379.37219	992.53113	1670.83313	-1183.22607	880.10510	1577.36084	-1138.77051	945.83911	1666.27258	-1313.39136	921.79919	1580.00952	
1653	6.883	-1293.77112	1009.58246	1758.58032	-1261.95288	989.35913	1701.26587	-1241.12769	964.07269	1658.08984	-1256.72595	997.43164	1733.72131	-1226.60535	994.50201	1730.98096	-1211.51343	992.59729	1770.63867	-1191.04797	999.69879	1787.04785	-1298.47827	991.04303	1716.45667	-1312.68591	987.28925	1694.25146	-1351.24097	980.17981	1706.84973	-1386.96338	973.72491	1701.52551	-1188.31006	876.51624	1589.29114	-1143.78967	939.89478	1675.68787	-1316.64050	915.60980	1589.79749	
1654	6.887	-1299.16345	1006.23645	1769.47778	-1267.32422	986.95264	1712.28003	-1247.02771	962.35681	1668.53760	-1262.00610	994.03363	1745.40918	-1232.28174	987.39038	1746.06592	-1225.80176	981.22699	1787.75354	-1209.88867	982.08020	1808.71277	-1303.97009	988.30048	1727.84326	-1320.51062	980.31641	1709.32483	-1354.36450	969.96393	1729.20325	-1388.69653	958.04547	1732.92957	-1193.53418	874.06323	1600.37671	-1148.97034	934.62091	1684.87622	-1319.29199	910.33795	1599.19604	
1655	6.892	-1304.64868	1002.79041	1780.55664	-1272.78955	984.81616	1723.25293	-1252.83765	960.54279	1679.20483	-1267.40869	990.90985	1757.36853	-1238.59338	980.99731	1759.83655	-1240.99622	972.97205	1801.98535	-1231.60083	967.86469	1825.37683	-1309.43164	985.95581	1739.35852	-1326.95691	974.31183	1723.74304	-1355.15112	962.98199	1750.10840	-1385.70862	946.86981	1762.63110	-1199.10962	872.43298	1610.68640	-1154.42017	929.79657	1694.45349	-1321.97595	906.04846	1608.61755	
1656	6.896	-1310.26892	999.26416	1791.87842	-1278.34460	982.80072	1734.29614	-1258.45142	958.70514	1690.19202	-1273.07800	988.12000	1769.46204	-1244.98486	975.61926	1772.25330	-1255.39868	968.51160	1813.64648	-1253.45435	958.73730	1837.30139	-1314.85498	983.89484	1751.01807	-1332.49341	969.56775	1736.84497	-1355.01233	959.67212	1768.29370	-1380.26868	941.01953	1788.50818	-1205.22693	870.99188	1620.67078	-1160.21521	925.01715	1704.81689	-1325.35181	902.42157	1618.57947	
1657	6.900	-1316.06897	995.68341	1803.49182	-1284.04126	980.73926	1745.56970	-1263.98303	956.76031	1701.49597	-1279.07495	985.60217	1781.54651	-1251.00610	971.45258	1783.44104	-1267.54517	967.70349	1823.41125	-1272.64319	955.30969	1845.87476	-1320.25354	981.90906	1762.81580	-1337.68335	966.27441	1748.30396	-1355.46545	959.70850	1783.04858	-1375.09387	940.21777	1809.29065	-1211.98560	869.04163	1630.97913	-1166.39587	919.98914	1716.04504	-1329.88940	899.00867	1629.52612	
1658	6.904	-1322.07190	992.06122	1815.42114	-1289.96753	978.49164	1757.20569	-1269.64819	954.61884	1713.11255	-1285.38403	983.20520	1793.55945	-1256.42102	968.60242	1793.49866	-1276.59741	969.60614	1832.01074	-1287.09595	956.61798	1852.98694	-1325.75781	979.79266	1774.75525	-1342.83350	964.46082	1758.07727	-1357.54333	962.10736	1794.36804	-1372.40454	942.97815	1824.80688	-1219.33838	866.15686	1642.11499	-1172.93567	914.63763	1727.97107	-1335.71521	895.59711	1641.59314	
1659	6.908	-1328.27014	988.41504	1827.64917	-1296.18494	976.01135	1769.21106	-1275.57617	952.25500	1725.00549	-1291.95874	980.76434	1805.51733	-1261.32349	967.02014	1802.41162	-1282.51636	972.91614	1840.01172	-1296.04932	960.47833	1860.17627	-1331.53101	977.36658	1786.80359	-1347.77991	963.92999	1766.33704	-1361.45959	965.68365	1802.84619	-1373.26660	947.18793	1835.67249	-1227.09082	862.34607	1654.22974	-1179.74170	909.09894	1740.33118	-1342.60718	892.39703	1654.49683	
1660	6.912	-1334.63782	984.77777	1840.09973	-1302.67090	973.36273	1781.44775	-1281.70325	949.72534	1737.11572	-1298.71252	978.12689	1817.44006	-1266.15625	966.42914	1810.14990	-1285.94580	976.51727	1847.68396	-1300.01416	964.61041	1868.06226	-1337.59326	974.49634	1798.83252	-1351.98389	964.29608	1773.52930	-1366.73938	969.53369	1809.34155	-1377.53455	950.96338	1842.76404	-1234.97449	857.90466	1667.18579	-1186.67444	903.68372	1752.90234	-1350.10437	889.89331	1667.63428	
1661	6.917	-1341.14343	981.18622	1852.64246	-1309.33044	970.66083	1793.72510	-1287.87659	947.10449	1749.36267	-1305.49658	975.18182	1829.29517	-1271.55029	966.36432	1816.87024	-1287.93298	979.81696	1854.99268	-1300.19751	967.67279	1876.34973	-1343.76135	971.21344	1810.64929	-1354.90100	965.06958	1780.42065	-1372.58105	973.20428	1814.62036	-1384.32715	953.30347	1846.80969	-1242.75122	853.14850	1680.73804	-1193.54932	898.79956	1765.58911	-1357.66577	888.51154	1680.33948	
1662	6.921	-1347.75085	977.66870	1865.13782	-1316.07910	967.98926	1805.93506	-1293.99902	944.39673	1761.65479	-1312.15417	971.93964	1841.03308	-1278.03271	966.35529	1822.98474	-1289.65906	982.72748	1861.77185	-1297.86389	969.48846	1884.20215	-1349.76807	967.82349	1822.14734	-1356.30847	965.79431	1787.90710	-1378.16443	976.58069	1819.26221	-1392.56604	954.28064	1848.20715	-1250.26086	848.26843	1694.65369	-1200.15234	894.87903	1778.38013	-1364.85608	888.33203	1692.18689	
1663	6.925	-1354.41992	974.25665	1877.46545	-1322.86121	965.34283	1818.07422	-1299.99780	941.55603	1773.90649	-1318.62207	968.54773	1852.64917	-1285.81067	966.08331	1829.06018	-1292.17590	985.33856	1867.97498	-1294.13049	970.58868	1890.62097	-1355.39929	964.73303	1833.41199	-1356.48352	966.16815	1796.70154	-1382.88416	979.68915	1823.84375	-1401.22705	954.78247	1847.16309	-1257.40283	843.34680	1708.73840	-1206.30127	892.29688	1791.24353	-1371.47913	888.95483	1703.19263	
1664	6.929	-1361.11646	970.99524	1889.55640	-1329.65100	962.56384	1830.21558	-1305.84033	938.48395	1786.07788	-1324.96057	965.20203	1864.19287	-1294.75537	965.41394	1835.65613	-1296.15698	987.63214	1873.84558	-1290.14331	971.68573	1894.75000	-1360.59827	962.12933	1844.66138	-1356.13123	966.06104	1807.13354	-1386.51868	982.50085	1829.05444	-1409.25256	955.95502	1843.95154	-1264.09485	838.43860	1722.82874	-1211.93750	891.18134	1804.10730	-1377.59583	889.64746	1713.75476	
1665	6.933	-1367.79956	967.93011	1901.40833	-1336.27527	959.39551	1842.31738	-1311.59399	935.03302	1798.20349	-1331.28577	962.02936	1875.72571	-1304.51294	964.32782	1843.20129	-1301.70093	989.45276	1879.87134	-1287.20935	973.42017	1896.25269	-1365.50623	959.83838	1856.06860	-1356.13501	965.44446	1819.14490	-1389.28809	984.86511	1835.49463	-1415.48499	958.70392	1839.23657	-1270.27332	833.63812	1736.74915	-1217.19543	891.20313	1816.92651	-1383.37402	889.78833	1724.29370	
1666	6.938	-1374.42310	965.08472	1913.05505	-1342.28308	955.52588	1854.10254	-1317.46606	931.03503	1810.39478	-1337.65796	959.00690	1887.26733	-1314.59937	962.85980	1851.95703	-1308.29456	990.62927	1886.61804	-1286.57605	976.24872	1895.71289	-1370.41907	957.48688	1867.64136	-1357.25354	964.35443	1832.37781	-1391.78442	986.61011	1843.35815	-1418.99365	963.47272	1834.33154	-1275.89587	829.11108	1750.25696	-1222.35217	891.62689	1829.71936	-1388.86450	889.28345	1734.93066	
1667	6.942	-1380.94836	962.44409	1924.52490	-1347.39417	950.81335	1865.36023	-1323.64233	926.44836	1822.72681	-1344.02783	955.97473	1898.78943	-1324.46924	961.09961	1862.03320	-1315.01733	991.06366	1894.52454	-1288.89136	980.35883	1894.69641	-1375.65369	954.77026	1879.25098	-1359.94910	962.91101	1846.25916	-1394.76123	987.63385	1852.31372	-1419.66052	970.18793	1830.96741	-1280.91370	825.06543	1763.08484	-1227.64771	891.74780	1842.49133	-1393.94165	888.48132	1745.51050	
1668	6.946	-1387.35413	959.95526	1935.82788	-1351.93311	945.57654	1876.22974	-1330.09460	921.43372	1835.15417	-1350.28320	952.75964	1910.26770	-1333.59985	959.18890	1873.38635	-1320.93164	990.69562	1903.77124	-1293.80591	985.56720	1895.25134	-1381.41626	951.59387	1890.73767	-1364.34387	961.30859	1860.13696	-1398.86353	987.88574	1861.70471	-1418.52161	978.20282	1830.58875	-1285.25793	821.67822	1775.05286	-1233.13733	891.39160	1855.07410	-1398.49646	887.58850	1755.90015	
